<svg xmlns="http://www.w3.org/2000/svg" viewBox="0 0 512 512" xmlns:c2pa="http://c2pa.org/manifest"><metadata><c2pa:manifest>AAAWgmp1bWIAAAAeanVtZGMycGEAEQAQgAAAqgA4m3EDYzJwYQAAABZcanVtYgAAAEdqdW1kYzJtYQARABCAAACqADibcQN1cm46YzJwYTphYWQwNGQ4Ni1mZDQ5LTQ5MDYtYjQ0Mi0xNzY5ZmE0NmY5NzkAAAADl2p1bWIAAAApanVtZGMyYXMAEQAQgAAAqgA4m3EDYzJwYS5hc3NlcnRpb25zAAAAALxqdW1iAAAARGp1bWRjYm9yABEAEIAAAKoAOJtxE2MycGEuaW5ncmVkaWVudC52MwAAAAAYYzJzaDbhsrKQ2p3/k2SuMtbyXC0AAABwY2JvcqNpZGM6Zm9ybWF0bWltYWdlL3N2Zyt4bWxqaW5zdGFuY2VJRHgseG1wOmlpZDpjMmJlMzNjZC0zOGNhLTRmNDgtYjBmZi1hYjgzM2UzOGUwZGVscmVsYXRpb25zaGlwaHBhcmVudE9mAAAB4mp1bWIAAABBanVtZGNib3IAEQAQgAAAqgA4m3ETYzJwYS5hY3Rpb25zLnYyAAAAABhjMnNoFTjRFHSTu0Bsf0VgKuEhAgAAAZljYm9yomdhY3Rpb25zgqJmYWN0aW9ua2MycGEub3BlbmVkanBhcmFtZXRlcnOha2luZ3JlZGllbnRzgaJjdXJseC1zZWxmI2p1bWJmPWMycGEuYXNzZXJ0aW9ucy9jMnBhLmluZ3JlZGllbnQudjNkaGFzaFggUUUFOPV6i0d3RYR4ZJwraxZ3pHUXR1SBghBkEzQNr82kZmFjdGlvbngdY29tLmFudGhyb3BpYy5jbGF1ZGUucHJvdmlkZWRqcGFyYW1ldGVyc6F4H2NvbS5hbnRocm9waWMub3JpZ2luLWNvbmZpZGVuY2VndW5rbm93bmtkZXNjcmlwdGlvbnhmQ2xhdWRlIHByb3ZpZGVkIHRoaXMgZmlsZSBhdCB0aGUgcmVxdWVzdCBvZiBhIHVzZXIgYW5kIG1heSBoYXZlIGNyZWF0ZWQgb3IgbW9kaWZpZWQgdGhlIGZpbGUgY29udGVudHMubXNvZnR3YXJlQWdlbnShZG5hbWVmQ2xhdWRlcmFsbEFjdGlvbnNJbmNsdWRlZPUAAADIanVtYgAAAEBqdW1kY2JvcgARABCAAACqADibcRNjMnBhLmhhc2guZGF0YQAAAAAYYzJzaDTin0oesi5kV/8q0jX/5BgAAACAY2JvcqVjYWxnZnNoYTI1NmNwYWRNAAAAAAAAAAAAAAAAAGRoYXNoWCAxtatvL6DMS/XBoASFrPjwNYM/xYYFaSJHMR5yNZQB3mRuYW1lbmp1bWJmIG1hbmlmZXN0amV4Y2x1c2lvbnOBomVzdGFydBh9Zmxlbmd0aBkeBAAAAj5qdW1iAAAAJ2p1bWRjMmNsABEAEIAAAKoAOJtxA2MycGEuY2xhaW0udjIAAAACD2Nib3KlY2FsZ2ZzaGEyNTZpc2lnbmF0dXJleE1zZWxmI2p1bWJmPS9jMnBhL3VybjpjMnBhOmFhZDA0ZDg2LWZkNDktNDkwNi1iNDQyLTE3NjlmYTQ2Zjk3OS9jMnBhLnNpZ25hdHVyZWppbnN0YW5jZUlEeCx4bXA6aWlkOmY5MjllMTMzLWI0MWUtNDVlYS1iNmYxLWM4NDU0MjA2NDE0NXJjcmVhdGVkX2Fzc2VydGlvbnODomN1cmx4LXNlbGYjanVtYmY9YzJwYS5hc3NlcnRpb25zL2MycGEuaW5ncmVkaWVudC52M2RoYXNoWCBRRQU49XqLR3dFhHhknCtrFnekdRdHVIGCEGQTNA2vzaJjdXJseCpzZWxmI2p1bWJmPWMycGEuYXNzZXJ0aW9ucy9jMnBhLmFjdGlvbnMudjJkaGFzaFggiGBTXaanBrHvx8GRZkq9LWlosWLPuONy0jG1PDJNT+GiY3VybHgpc2VsZiNqdW1iZj1jMnBhLmFzc2VydGlvbnMvYzJwYS5oYXNoLmRhdGFkaGFzaFgg8ENMqf2Dvoi4blzm5+SOCmvymSyagagM1wqcp8O2CZR0Y2xhaW1fZ2VuZXJhdG9yX2luZm+jZG5hbWVvQW50aHJvcGljIEZpbGVzZ3ZlcnNpb25lMS4wLjBrc3BlY1ZlcnNpb25lMi40LjAAABA4anVtYgAAAChqdW1kYzJjcwARABCAAACqADibcQNjMnBhLnNpZ25hdHVyZQAAABAIY2JvctKEWQISogEmGCFZAgowggIGMIIBjaADAgECAhRA5aAK7sI50L64g/oGQgU9Z1UTADAKBggqhkjOPQQDAzBJMRcwFQYDVQQKEw5BbnRocm9waWMsIFBCQzEuMCwGA1UEAxMlQW50aHJvcGljIENvbnRlbnQgQ3JlZGVudGlhbHMgUm9vdCBDQTAeFw0yNjA4MDcxODQzNTZaFw0yODA4MDYxOTQzNTZaMEQxFzAVBgNVBAoTDkFudGhyb3BpYywgUEJDMSkwJwYDVQQDEyBBbnRocm9waWMgQ2xhdWRlIENvbnRlbnQgU2lnbmluZzBZMBMGByqGSM49AgEGCCqGSM49AwEHA0IABJh6CmvLUBgFFNU0vUKlOVtE6djd17L5SuwX0LemFisBM3dkd/3cyjxFA3Qo5S46fX0/ihY0VZ7mfb9KF703t5OjWDBWMA4GA1UdDwEB/wQEAwIHgDAVBgNVHSUEDjAMBgorBgEEAYPoXgIBMAwGA1UdEwEB/wQCMAAwHwYDVR0jBBgwFoAUzlHiBIFOZFsj+OPEz5o+nMHXXMIwCgYIKoZIzj0EAwMDZwAwZAIwMXMdFJ4BetLLVY7ORuE9noqbbAZOZn/aArXyTwFAZfKrPzxF2vPoJNf1+UCdg1XGAjBwX1zd9WGqYkqmL5SFqw1QySjr1zJfpJM9+1rdDwSPLMOPOjKuiXjoU/pUUeG9RwmhY3BhZFkNngAAAAAAAAAAAAAAAAAAAAAAAAAAAAAAAAAAAAAAAAAAAAAAAAAAAAAAAAAAAAAAAAAAAAAAAAAAAAAAAAAAAAAAAAAAAAAAAAAAAAAAAAAAAAAAAAAAAAAAAAAAAAAAAAAAAAAAAAAAAAAAAAAAAAAAAAAAAAAAAAAAAAAAAAAAAAAAAAAAAAAAAAAAAAAAAAAAAAAAAAAAAAAAAAAAAAAAAAAAAAAAAAAAAAAAAAAAAAAAAAAAAAAAAAAAAAAAAAAAAAAAAAAAAAAAAAAAAAAAAAAAAAAAAAAAAAAAAAAAAAAAAAAAAAAAAAAAAAAAAAAAAAAAAAAAAAAAAAAAAAAAAAAAAAAAAAAAAAAAAAAAAAAAAAAAAAAAAAAAAAAAAAAAAAAAAAAAAAAAAAAAAAAAAAAAAAAAAAAAAAAAAAAAAAAAAAAAAAAAAAAAAAAAAAAAAAAAAAAAAAAAAAAAAAAAAAAAAAAAAAAAAAAAAAAAAAAAAAAAAAAAAAAAAAAAAAAAAAAAAAAAAAAAAAAAAAAAAAAAAAAAAAAAAAAAAAAAAAAAAAAAAAAAAAAAAAAAAAAAAAAAAAAAAAAAAAAAAAAAAAAAAAAAAAAAAAAAAAAAAAAAAAAAAAAAAAAAAAAAAAAAAAAAAAAAAAAAAAAAAAAAAAAAAAAAAAAAAAAAAAAAAAAAAAAAAAAAAAAAAAAAAAAAAAAAAAAAAAAAAAAAAAAAAAAAAAAAAAAAAAAAAAAAAAAAAAAAAAAAAAAAAAAAAAAAAAAAAAAAAAAAAAAAAAAAAAAAAAAAAAAAAAAAAAAAAAAAAAAAAAAAAAAAAAAAAAAAAAAAAAAAAAAAAAAAAAAAAAAAAAAAAAAAAAAAAAAAAAAAAAAAAAAAAAAAAAAAAAAAAAAAAAAAAAAAAAAAAAAAAAAAAAAAAAAAAAAAAAAAAAAAAAAAAAAAAAAAAAAAAAAAAAAAAAAAAAAAAAAAAAAAAAAAAAAAAAAAAAAAAAAAAAAAAAAAAAAAAAAAAAAAAAAAAAAAAAAAAAAAAAAAAAAAAAAAAAAAAAAAAAAAAAAAAAAAAAAAAAAAAAAAAAAAAAAAAAAAAAAAAAAAAAAAAAAAAAAAAAAAAAAAAAAAAAAAAAAAAAAAAAAAAAAAAAAAAAAAAAAAAAAAAAAAAAAAAAAAAAAAAAAAAAAAAAAAAAAAAAAAAAAAAAAAAAAAAAAAAAAAAAAAAAAAAAAAAAAAAAAAAAAAAAAAAAAAAAAAAAAAAAAAAAAAAAAAAAAAAAAAAAAAAAAAAAAAAAAAAAAAAAAAAAAAAAAAAAAAAAAAAAAAAAAAAAAAAAAAAAAAAAAAAAAAAAAAAAAAAAAAAAAAAAAAAAAAAAAAAAAAAAAAAAAAAAAAAAAAAAAAAAAAAAAAAAAAAAAAAAAAAAAAAAAAAAAAAAAAAAAAAAAAAAAAAAAAAAAAAAAAAAAAAAAAAAAAAAAAAAAAAAAAAAAAAAAAAAAAAAAAAAAAAAAAAAAAAAAAAAAAAAAAAAAAAAAAAAAAAAAAAAAAAAAAAAAAAAAAAAAAAAAAAAAAAAAAAAAAAAAAAAAAAAAAAAAAAAAAAAAAAAAAAAAAAAAAAAAAAAAAAAAAAAAAAAAAAAAAAAAAAAAAAAAAAAAAAAAAAAAAAAAAAAAAAAAAAAAAAAAAAAAAAAAAAAAAAAAAAAAAAAAAAAAAAAAAAAAAAAAAAAAAAAAAAAAAAAAAAAAAAAAAAAAAAAAAAAAAAAAAAAAAAAAAAAAAAAAAAAAAAAAAAAAAAAAAAAAAAAAAAAAAAAAAAAAAAAAAAAAAAAAAAAAAAAAAAAAAAAAAAAAAAAAAAAAAAAAAAAAAAAAAAAAAAAAAAAAAAAAAAAAAAAAAAAAAAAAAAAAAAAAAAAAAAAAAAAAAAAAAAAAAAAAAAAAAAAAAAAAAAAAAAAAAAAAAAAAAAAAAAAAAAAAAAAAAAAAAAAAAAAAAAAAAAAAAAAAAAAAAAAAAAAAAAAAAAAAAAAAAAAAAAAAAAAAAAAAAAAAAAAAAAAAAAAAAAAAAAAAAAAAAAAAAAAAAAAAAAAAAAAAAAAAAAAAAAAAAAAAAAAAAAAAAAAAAAAAAAAAAAAAAAAAAAAAAAAAAAAAAAAAAAAAAAAAAAAAAAAAAAAAAAAAAAAAAAAAAAAAAAAAAAAAAAAAAAAAAAAAAAAAAAAAAAAAAAAAAAAAAAAAAAAAAAAAAAAAAAAAAAAAAAAAAAAAAAAAAAAAAAAAAAAAAAAAAAAAAAAAAAAAAAAAAAAAAAAAAAAAAAAAAAAAAAAAAAAAAAAAAAAAAAAAAAAAAAAAAAAAAAAAAAAAAAAAAAAAAAAAAAAAAAAAAAAAAAAAAAAAAAAAAAAAAAAAAAAAAAAAAAAAAAAAAAAAAAAAAAAAAAAAAAAAAAAAAAAAAAAAAAAAAAAAAAAAAAAAAAAAAAAAAAAAAAAAAAAAAAAAAAAAAAAAAAAAAAAAAAAAAAAAAAAAAAAAAAAAAAAAAAAAAAAAAAAAAAAAAAAAAAAAAAAAAAAAAAAAAAAAAAAAAAAAAAAAAAAAAAAAAAAAAAAAAAAAAAAAAAAAAAAAAAAAAAAAAAAAAAAAAAAAAAAAAAAAAAAAAAAAAAAAAAAAAAAAAAAAAAAAAAAAAAAAAAAAAAAAAAAAAAAAAAAAAAAAAAAAAAAAAAAAAAAAAAAAAAAAAAAAAAAAAAAAAAAAAAAAAAAAAAAAAAAAAAAAAAAAAAAAAAAAAAAAAAAAAAAAAAAAAAAAAAAAAAAAAAAAAAAAAAAAAAAAAAAAAAAAAAAAAAAAAAAAAAAAAAAAAAAAAAAAAAAAAAAAAAAAAAAAAAAAAAAAAAAAAAAAAAAAAAAAAAAAAAAAAAAAAAAAAAAAAAAAAAAAAAAAAAAAAAAAAAAAAAAAAAAAAAAAAAAAAAAAAAAAAAAAAAAAAAAAAAAAAAAAAAAAAAAAAAAAAAAAAAAAAAAAAAAAAAAAAAAAAAAAAAAAAAAAAAAAAAAAAAAAAAAAAAAAAAAAAAAAAAAAAAAAAAAAAAAAAAAAAAAAAAAAAAAAAAAAAAAAAAAAAAAAAAAAAAAAAAAAAAAAAAAAAAAAAAAAAAAAAAAAAAAAAAAAAAAAAAAAAAAAAAAAAAAAAAAAAAAAAAAAAAAAAAAAAAAAAAAAAAAAAAAAAAAAAAAAAAAAAAAAAAAAAAAAAAAAAAAAAAAAAAAAAAAAAAAAAAAAAAAAAAAAAAAAAAAAAAAAAAAAAAAAAAAAAAAAAAAAAAAAAAAAAAAAAAAAAAAAAAAAAAAAAAAAAAAAAAAAAAAAAAAAAAAAAAAAAAAAAAAAAAAAAAAAAAAAAAAAAAAAAAAAAAAAAAAAAAAAAAAAAAAAAAAAAAAAAAAAAAAAAAAAAAAAAAAAAAAAAAAAAAAAAAAAAAAAAAAAAAAAAAAAAAAAAAAAAAAAAAAAAAAAAAAAAAAAAAAAAAAAAAAAAAAAAAAAAAAAAAAAAAAAAAAAAAAAAAAAAAAAAAAAAAAAAAAAAAAAAAAAAAAAAAAAAAAAAAAAAAAAAAAAAAAAAAAAAAAAAAAAAAAAAAAAAAAAAAAAAAAAAAAAAAAAAAAAAAAAAAAAAAAAAAAAAAAAAAAAAAAAAAAAAAAAAAAAAAAAAAAAAAAAAAAAAAAAAAAAAAAAAAAAAAAAAAAAAAAAAAAAAAAAAAAAAAAAAAAAAAAAAAAAAAAAAAAAAAAAAAAAAAAAAAAAAAAAAAAAAAAAAAAAAAAAAAAAAAAAAAAAAAAAAAAAAAAAAAAAAAAAAAAAAAAAAAAAAAAAAAAAAAAAAAAAAAAAAAAAAAAAAAAAAAAAAAAAAAAAAAAAAAAAAAAAAAAAAAAAAAAAAAAAAAAAAAAAAAAAAAAAAAAAAAAAAAAAAAAAAAAAAAAAAAAAAAAAAAAAAAAAAAAAAAAAAAAAAAAAAAAAAAAAAAAAAAAAAAAAAAAAAAAAAAAAAAAAAAAAAAAAAAAAAAAAAAAAAAAAAAAAAAAAAAAAAAAAAAAAAAAAAAAAAAAAAAAAAAAAAAAAAAAAAAAAAAAAAAAAAAAAAAAAAAAAAAAAAAAAAAAAAAAAAAAAAAAAAAAAAAAAAAAAAAAAAAAAAAAAAAAAAAAAAAAAAAAAAAAAAAAAAAAAAAAAAAAAAAAAAAAAAAAAAAAAAAAAAAAAAAAAAAAAAAAAAAAAAAAAAAAAAAAAAAAAAAAAAAAAAAAAAAAAAAAAAAAAAAAAAAAAAAAAAAAAAAAAAAAAAAAAAAAAAAAAAAAAAAAAAAAAAAAAAAAAAAAAAAAAAAAAAAAAAAAAAAAAAAAAAAAAAAAAAAAAAAAAAAAAAAAAAAAAAAAAAAAAAAAAAAAAAAAAAAAAAAAAAAAAAAAAAAAAAAAAAAAAAAAAAAAAAAAAAAAAAAAAAAAAAAAAAAAAAAAAAAAAAAAAAAAAAAAAAAAAAAAAAAAAAAAAAAAAAAAAAAAAAAAAAAAAAAAAAAAAAAAAAAAAAAAAAAAAAAAAAAAAAAAAAAAAAAAAAAAAAAAAAAAAAAAAAAAAAAAAAAAAAAAAAAAAAAAAAAAAAAAAAAAAAAAAAAAAAAAAAAAAAAAAAAAAAAAAAAAAAAAAAAAAAAPZYQCpaWn/UTeBNJ6gMq+x6AD2W03Y41Rij60sT6iSYpl7jaROYog1BYNErsnCeO+Oewzr0rsotADqrvabn9ugcprw=</c2pa:manifest></metadata><path d="M0 0h512v512H0z"/><g transform="translate(26.000,140.255) scale(0.993521)"><g transform="translate(0.000000,233.000000) scale(0.100000,-0.100000)" fill="#fff" stroke="none">
<path d="M403 2300 c-40 -10 -81 -24 -93 -30 -30 -16 -26 -62 8 -87 16 -12 83
-65 149 -120 67 -54 211 -172 322 -261 114 -93 198 -168 194 -174 -3 -7 -1 -8
5 -4 6 4 69 -41 144 -101 73 -60 172 -139 221 -176 48 -38 87 -71 87 -74 0 -3
-8 1 -17 8 -16 13 -17 12 -4 -3 7 -10 17 -15 22 -12 8 5 163 -106 156 -112 -9
-10 -838 -254 -861 -254 -8 0 -28 24 -44 53 -16 28 -66 115 -112 192 -46 77
-99 169 -119 204 -52 92 -60 95 -157 71 -43 -11 -85 -27 -93 -35 -13 -12 -13
-47 0 -265 8 -137 11 -250 7 -250 -5 0 -8 7 -8 15 0 8 -5 15 -12 15 -6 0 -8
-3 -5 -7 4 -3 -24 -14 -62 -24 -96 -24 -131 -44 -131 -73 0 -20 15 -30 105
-71 58 -27 102 -52 98 -58 -3 -6 -1 -7 4 -4 6 4 32 -1 59 -10 40 -13 45 -18
29 -24 -17 -6 -17 -8 -3 -8 28 -1 68 -23 61 -34 -3 -6 -1 -7 5 -3 23 14 101
-25 262 -131 275 -183 242 -167 319 -153 62 12 101 32 101 52 0 4 -16 33 -36
63 -20 29 -33 59 -29 65 3 6 2 9 -4 8 -17 -4 -95 121 -79 127 11 3 1010 146
1128 160 25 4 59 11 77 16 30 10 40 5 145 -59 377 -231 663 -414 660 -423 -1
-6 2 -8 8 -4 6 4 83 -38 173 -93 376 -230 336 -214 454 -186 94 21 129 60 88
94 -59 49 -454 470 -439 467 22 -3 104 -88 104 -106 0 -7 6 -11 13 -8 6 2 11
10 9 16 -1 6 5 11 13 11 9 0 29 7 45 15 17 9 30 11 30 5 0 -14 27 -12 33 3 2
6 10 -8 16 -33 18 -70 29 -90 50 -90 37 0 40 20 19 113 -18 81 -19 90 -4 106
19 20 20 44 6 72 -9 16 -4 30 25 77 19 32 35 67 35 79 0 17 17 31 80 64 50 26
95 58 120 86 86 98 73 164 -44 223 l-69 35 -188 5 c-103 3 -185 2 -182 -2 2
-5 0 -8 -5 -8 -6 0 -12 7 -15 15 -4 8 -38 56 -76 108 -68 90 -70 94 -59 124 9
24 9 38 0 58 -11 24 -7 33 63 132 41 58 75 114 75 124 0 10 -11 26 -25 35 -33
22 -44 13 -136 -123 -38 -57 -74 -103 -78 -103 -5 0 -47 56 -94 124 -47 68
-94 126 -103 130 -21 8 -54 -20 -54 -47 0 -11 25 -55 55 -98 31 -44 53 -83 51
-88 -3 -5 -23 -12 -43 -16 -59 -10 -120 -41 -133 -65 -11 -21 -4 -188 7 -176
2 1 24 -18 51 -43 29 -28 44 -49 37 -53 -7 -5 -6 -8 2 -8 6 0 20 -3 30 -6 13
-4 14 -3 5 4 -11 7 -10 11 4 16 27 10 27 0 0 -47 -30 -51 -33 -78 -8 -99 25
-22 46 -33 38 -20 -3 5 -2 12 3 14 5 1 41 57 80 123 39 66 71 114 71 108 0 -7
7 -13 15 -13 19 0 20 28 0 32 -9 2 -12 8 -6 16 6 10 18 -2 42 -40 19 -29 33
-56 31 -61 -1 -5 1 -6 6 -3 4 2 14 -4 21 -16 7 -11 8 -17 2 -13 -6 3 -11 -1
-11 -10 0 -11 5 -15 16 -11 8 3 12 2 9 -4 -3 -6 -14 -10 -23 -10 -28 0 -62
-29 -62 -53 0 -16 -3 -18 -9 -8 -7 10 -11 9 -22 -6 -17 -23 -192 -86 -316
-113 -104 -23 -130 -25 -84 -5 18 8 37 12 43 9 34 -22 -25 39 -73 75 -33 24
-58 45 -57 47 13 13 171 62 185 58 15 -5 16 -4 3 5 -13 9 -13 11 1 11 39 0 38
23 -2 68 -47 54 -72 129 -63 190 3 23 4 42 1 42 -12 0 -204 -68 -237 -84 -19
-9 -56 -31 -81 -49 -25 -19 -86 -47 -135 -65 -132 -46 -146 -47 -76 -7 34 20
62 40 62 44 0 4 -34 27 -75 50 -41 24 -75 45 -75 47 0 2 13 25 28 51 16 27 41
70 56 96 l27 48 74 -98 c90 -121 107 -137 134 -128 53 17 28 78 -97 232 -31
39 -33 46 -23 73 6 20 7 39 1 55 -8 22 0 39 65 131 77 111 82 122 65 155 -18
33 -47 22 -91 -33 -23 -29 -45 -52 -49 -51 -4 1 -7 -3 -7 -10 0 -7 -14 -35
-32 -63 -31 -51 -65 -73 -75 -49 -7 20 -153 220 -171 235 -12 10 -21 10 -40 2
-39 -18 -32 -55 26 -133 28 -38 48 -73 44 -79 -4 -6 -3 -10 2 -9 39 7 14 -6
-47 -25 -122 -38 -128 -41 -140 -85 -13 -48 -6 -81 26 -138 27 -47 100 -103
135 -103 17 0 20 -3 12 -11 -9 -9 -29 -2 -80 25 -80 44 -99 63 -114 119 -6 23
-13 47 -15 54 -2 9 -19 7 -63 -8 -43 -15 -65 -18 -78 -11 -13 7 -24 6 -38 -4
-14 -10 -15 -14 -4 -15 15 -1 -30 -22 -71 -33 -14 -4 1 9 33 29 31 20 57 40
57 43 0 8 -252 145 -711 386 -376 197 -363 193 -506 156z m2826 -1106 c30 -6
31 -9 31 -55 0 -40 -3 -49 -17 -50 -15 0 -15 -2 2 -8 16 -6 12 -9 -20 -15 -22
-4 -48 -9 -57 -12 -16 -5 -18 2 -18 58 0 84 11 95 79 82z m204 -1 c-7 -2 -21
-2 -30 0 -10 3 -4 5 12 5 17 0 24 -2 18 -5z m-112 -10 c-22 -4 -23 -8 -18 -54
4 -28 2 -49 -3 -49 -6 0 -10 25 -10 55 0 54 1 55 28 54 25 -2 25 -2 3 -6z
m426 -14 c19 -12 32 -23 29 -26 -3 -3 -15 2 -28 11 -12 9 -26 16 -30 16 -13 0
-9 -28 5 -33 7 -3 5 -6 -5 -6 -13 -1 -18 7 -18 29 0 36 3 36 47 9z m37 -103
c-5 -14 -9 -15 -15 -5 -5 8 -3 17 4 21 15 9 19 4 11 -16z m-2319 -24 c-6 -5
-50 -19 -100 -32 -106 -27 -114 -32 -107 -67 3 -18 1 -24 -7 -19 -6 4 -11 1
-12 -6 0 -7 -6 3 -12 22 l-13 35 111 37 c107 36 159 47 140 30z m1936 -104
c18 -33 38 -118 29 -118 -5 0 -17 26 -27 58 -17 48 -23 57 -44 57 -21 0 -24
-4 -24 -40 1 -22 8 -64 17 -92 l17 -53 -47 -2 c-26 -1 -63 -1 -82 -1 -19 1
-27 -1 -17 -4 13 -3 6 -12 -30 -37 -68 -46 -96 -50 -128 -16 l-27 28 114 26
c62 15 129 31 149 37 l37 9 -14 47 c-19 64 -18 89 8 107 31 22 55 20 69 -6z
m77 -152 c-22 -45 -22 -46 -35 -24 -17 31 -16 36 4 34 10 0 18 5 18 12 0 12
26 34 33 28 1 -2 -7 -24 -20 -50z m-310 -177 c-8 -5 -22 1 -35 13 -17 16 -20
24 -11 29 8 5 22 -1 35 -13 17 -16 20 -24 11 -29z"/>
<path d="M3293 763 c9 -2 25 -2 35 0 9 3 1 5 -18 5 -19 0 -27 -2 -17 -5z"/>
<path d="M2865 1650 c-3 -5 1 -10 9 -10 9 0 16 5 16 10 0 6 -4 10 -9 10 -6 0
-13 -4 -16 -10z"/>
</g></g></svg>
