<svg xmlns="http://www.w3.org/2000/svg" viewBox="0 0 512 512"><g transform="translate(20.000,46.954) scale(1.197970)"><g transform="translate(0.000000,349.000000) scale(0.100000,-0.100000)" fill="#233441" stroke="none">
<path d="M1803 3374 c-387 -56 -707 -217 -984 -493 -270 -270 -419 -566 -469
-931 -13 -88 -17 -341 -6 -358 4 -6 22 -5 48 3 l43 12 1 139 c5 495 233 935
641 1237 112 83 320 190 444 231 483 156 980 90 1384 -182 337 -227 564 -571
641 -972 35 -186 24 -468 -27 -674 -11 -43 -19 -80 -17 -82 2 -1 26 0 53 4
l50 7 22 110 c32 158 47 332 39 455 -51 771 -617 1378 -1393 1495 -119 18
-345 18 -470 -1z"/>
<path d="M2387 3013 c-2 -4 -4 -151 -5 -326 0 -176 -2 -320 -4 -322 -2 -1 -21
-6 -42 -9 l-39 -7 7 219 c6 192 5 221 -9 232 -12 10 -21 10 -41 2 l-25 -12 7
-225 c8 -240 9 -230 -41 -237 -19 -3 -20 3 -20 132 l0 135 -30 0 -30 0 3 -142
4 -142 -42 -12 c-49 -15 -52 -20 -86 -174 -13 -60 -26 -120 -29 -132 -4 -18
-16 -23 -77 -33 -304 -50 -618 -126 -880 -214 l-187 -62 -37 133 c-21 73 -41
138 -45 144 -5 9 -21 8 -65 -3 l-59 -14 -8 -139 c-12 -216 -6 -200 -84 -226
l-67 -22 42 -16 c55 -22 80 -46 37 -37 -108 23 -146 20 -245 -22 -52 -22 -117
-46 -145 -53 -44 -11 -47 -14 -25 -20 41 -12 149 -9 245 5 93 15 164 10 218
-15 19 -9 24 -15 15 -20 -24 -15 -3 -16 102 -5 l105 11 -55 32 c-31 18 -67 37
-80 43 -21 9 -19 10 15 5 45 -7 146 -41 310 -106 93 -36 123 -44 198 -47 81
-4 98 -1 205 34 165 54 256 54 427 -1 160 -52 265 -55 430 -11 163 44 242 41
410 -14 168 -54 250 -61 390 -30 167 36 182 36 289 1 52 -17 114 -33 138 -36
l43 -5 -35 11 c-19 5 -52 15 -72 20 l-37 9 25 54 c56 123 54 233 -8 356 -99
196 -346 309 -674 310 l-62 0 -5 33 c-3 17 -11 84 -18 147 -15 142 -20 157
-64 176 -33 13 -35 17 -35 60 0 41 -2 45 -22 42 -20 -3 -23 -10 -26 -50 -3
-40 -6 -48 -23 -48 -18 0 -19 9 -19 223 0 141 4 227 10 233 7 7 10 47 8 100
l-3 89 -37 3 c-20 2 -38 -1 -41 -5z m60 -105 c-2 -18 -4 -6 -4 27 0 33 2 48 4
33 2 -15 2 -42 0 -60z m73 -575 c0 -7 -274 -51 -370 -59 -30 -3 -27 -1 15 11
119 36 355 67 355 48z m62 -59 c3 -21 10 -90 14 -153 6 -95 5 -113 -7 -109
-16 5 -24 63 -32 211 -3 69 -1 97 7 94 6 -2 14 -21 18 -43z m-172 -264 c-8 -5
-42 -9 -75 -8 l-60 1 45 7 c73 11 108 11 90 0z m461 -64 c170 -23 287 -71 380
-156 l44 -40 -75 39 c-89 47 -187 75 -328 94 l-103 14 -36 -51 c-53 -74 -60
-78 -25 -14 18 32 32 60 32 63 0 11 -426 4 -590 -10 -246 -22 -534 -60 -749
-101 -101 -19 -189 -33 -194 -31 -16 5 350 93 503 121 425 77 882 106 1141 72z"/>
<path d="M390 1298 c0 -19 69 -187 113 -273 224 -448 651 -778 1142 -884 414
-91 867 -21 1223 188 255 149 495 398 616 639 l36 72 -42 -6 c-24 -3 -98 -17
-165 -30 -150 -29 -201 -30 -323 -3 -52 11 -144 32 -205 45 -192 41 -296 31
-536 -53 -131 -46 -137 -47 -254 -47 -108 0 -130 3 -215 31 -190 63 -276 63
-458 2 -102 -35 -229 -50 -327 -39 -38 5 -71 7 -73 5 -6 -5 144 -64 189 -74
63 -15 154 -13 224 4 112 27 211 29 295 5 193 -54 230 -62 305 -67 113 -8 206
10 390 72 254 86 308 90 530 34 103 -27 134 -30 220 -27 91 3 107 7 178 41 43
20 92 46 108 58 37 26 37 20 -7 -54 -171 -294 -485 -546 -816 -656 -179 -59
-257 -72 -473 -78 -173 -5 -217 -2 -321 15 -416 71 -782 299 -1026 639 -85
118 -223 392 -206 409 3 3 53 -26 110 -63 149 -99 237 -127 388 -126 116 0
297 32 311 54 3 5 65 10 140 11 137 2 231 -15 328 -59 25 -11 68 -16 155 -16
113 0 130 3 261 41 239 71 341 73 543 11 137 -42 225 -47 332 -19 68 18 119
23 256 26 151 3 181 7 255 30 78 24 264 113 255 121 -5 6 -118 -24 -206 -54
-84 -28 -149 -27 -288 4 -80 19 -121 14 -272 -28 -96 -26 -168 -21 -327 25
-210 62 -323 64 -517 11 -198 -54 -248 -53 -435 6 -144 46 -220 48 -366 9
-235 -63 -271 -63 -435 4 -85 34 -119 41 -195 37 l-40 -2 85 -44 c50 -26 76
-44 64 -44 -36 -1 -190 28 -313 59 -155 39 -211 50 -211 38z"/>
<path d="M2540 815 c-31 -8 -113 -37 -183 -65 -154 -62 -218 -74 -361 -65
-118 7 -183 22 -111 26 22 1 54 5 70 9 l30 8 -27 1 c-15 0 -79 15 -143 31
-138 36 -139 36 -268 9 -56 -11 -131 -24 -167 -28 l-65 -6 100 -34 c95 -32
105 -33 210 -28 73 3 133 0 178 -10 38 -7 100 -15 139 -18 39 -2 72 -6 75 -8
5 -6 -59 -14 -172 -23 l-90 -7 39 -13 c91 -32 209 -47 331 -41 146 7 206 23
355 91 146 68 186 77 362 81 79 2 159 8 178 13 l35 9 -40 8 c-22 4 -100 22
-173 41 -144 37 -212 41 -302 19z"/>
</g></g></svg>
